<svg xmlns="http://www.w3.org/2000/svg" viewBox="0 0 301.28 155.4"><defs><style>.cls-1,.cls-2,.cls-3{fill:#1d1d1b;}.cls-1,.cls-2,.cls-3,.cls-4{stroke:#1d1d1b;stroke-miterlimit:10;}.cls-1{stroke-width:1.18px;}.cls-2{stroke-width:0.65px;}.cls-3{font-size:120px;stroke-width:3px;font-family:PalaceScriptMT, Palace Script MT;}.cls-4{fill:#f49422;stroke-width:0.25px;}</style></defs><g id="Livello_2" data-name="Livello 2"><g id="Livello_1-2" data-name="Livello 1"><path class="cls-1" d="M221,82.3h.17l15.71,34.78a7.16,7.16,0,0,1,.75,2.74,2.08,2.08,0,0,1-1.58,2.29,18.37,18.37,0,0,1-4.49.42V123h19v-.48a13,13,0,0,1-2.86-.47,5.59,5.59,0,0,1-2.35-1.67,17,17,0,0,1-2.59-4.27l-17.38-38h-4.26L204.68,116.3a12.2,12.2,0,0,1-3.05,4.53,7.92,7.92,0,0,1-4.67,1.7V123h13.63v-.48a7.7,7.7,0,0,1-3.46-.62,2.5,2.5,0,0,1-1.23-2.48,9.86,9.86,0,0,1,.95-3.59Z"/><path class="cls-1" d="M281.43,122.74H259.72v-.48h.79a6.11,6.11,0,0,0,3.8-1.22,4.34,4.34,0,0,0,1.59-3.66V83.89a4.68,4.68,0,0,0-1.47-3.69,5.84,5.84,0,0,0-4-1.31h-.71v-.51h18.95a26.8,26.8,0,0,1,6.9.83,17.28,17.28,0,0,1,5.33,2.29,11.22,11.22,0,0,1,3.37,3.31,7.3,7.3,0,0,1,1.19,4,7.71,7.71,0,0,1-3.39,6.5A23.14,23.14,0,0,1,283,99v.12q2.61.21,5,.63a22,22,0,0,1,4.33,1.18,16.71,16.71,0,0,1,3.63,2,13.61,13.61,0,0,1,2.6,2.38,9.36,9.36,0,0,1,1.61,2.82,9,9,0,0,1,.56,3.11,8.45,8.45,0,0,1-2.35,6,16.08,16.08,0,0,1-5.3,3.79Q288.84,122.75,281.43,122.74Zm-9.54-24h3.79A21,21,0,0,0,282.3,98a15.7,15.7,0,0,0,2.62-1.32,9.25,9.25,0,0,0,2.6-2.65,7.59,7.59,0,0,0,1.24-4.37,9,9,0,0,0-.83-3.78,9.62,9.62,0,0,0-2.4-3.18,11.63,11.63,0,0,0-3.75-2.16,13.61,13.61,0,0,0-4.73-.79,23.26,23.26,0,0,0-5.16.67Zm5.95,1.35h-5.95v16a7.33,7.33,0,0,0,.42,2.67,3.82,3.82,0,0,0,2.26,1.85,15.67,15.67,0,0,0,5.72.78q8,0,11.38-4.06A9.62,9.62,0,0,0,294,111a9.13,9.13,0,0,0-1.16-4.57,10,10,0,0,0-3.2-3.42,16.22,16.22,0,0,0-5.1-2.16A27.19,27.19,0,0,0,277.84,100.09Z"/><path class="cls-2" d="M87.86,21.64c-6.44-6.87-17.08-7.36-26.55-3.92L56.18,7a.31.31,0,0,0-.24-.19L21.15.33a.7.7,0,0,0-.49.1L12.34,5.79a0,0,0,0,0,0,.08l8.77-4.39a.76.76,0,0,1,.42-.06l33,6.05a.36.36,0,0,1,.24.18l5.17,10.59a36.52,36.52,0,0,0-9.21,5.41l-7.4-9.14a.31.31,0,0,0-.27-.12L7.69,15.89a.68.68,0,0,0-.46.21L.34,23.19a0,0,0,0,0,.06.07L8,17a.71.71,0,0,1,.4-.16l33.47-1.53a.33.33,0,0,1,.27.12l7.52,9.15c-.69.62-1.35,1.25-2,1.91-9.41,10-11.17,26-3.92,39.6A28.91,28.91,0,0,0,57,67.24c4.21-.67,6.42-2.08,12.37-4.78,13.06-6,14-4.45,17-7C94.25,48.84,96.71,31.06,87.86,21.64Zm-21,26.09c-5.47,5.47-12.86,3.76-13.23,3.66-.09-.37-1.8-7.76,3.66-13.23S70.2,34.41,70.57,34.5C70.66,34.88,72.37,42.27,66.91,47.73Z"/><text class="cls-3" transform="translate(25.23 124.84)">Bee</text><polygon class="cls-4" points="222.75 114.47 222.75 124.05 177.77 124.05 178.82 123.01 177.55 121.74 176.61 122.67 176.61 115.41 183.26 115.41 183.26 113.68 176.61 113.68 176.61 111.68 179.26 111.68 179.26 109.61 176.61 109.61 176.61 107.45 183.26 107.45 183.26 105.71 176.61 105.71 176.61 103.71 179.26 103.71 179.26 101.65 176.61 101.65 176.61 99.65 183.26 99.65 183.26 97.91 176.61 97.91 176.61 95.91 179.26 95.91 179.26 93.85 176.61 93.85 176.61 91.78 183.26 91.78 183.26 90.05 176.61 90.05 176.61 88.05 179.26 88.05 179.26 85.98 176.61 85.98 176.61 83.98 183.26 83.98 183.26 82.25 176.61 82.25 176.61 80.25 179.26 80.25 179.26 78.18 176.61 78.18 176.61 67.57 186.2 67.57 186.2 114.48 187.62 114.48 187.63 114.47 222.75 114.47"/></g></g></svg>